<svg width="20" height="20" viewBox="0 0 20 20" fill="none" xmlns="http://www.w3.org/2000/svg">
<path d="M14.4583 2H4.54167C3.6027 2.00115 2.70252 2.38464 2.03857 3.06634C1.37462 3.74804 1.00112 4.67229 1 5.63636L1 14.3636C1.00112 15.3277 1.37462 16.252 2.03857 16.9337C2.70252 17.6154 3.6027 17.9988 4.54167 18H14.4583C15.3973 17.9988 16.2975 17.6154 16.9614 16.9337C17.6254 16.252 17.9989 15.3277 18 14.3636V5.63636C17.9989 4.67229 17.6254 3.74804 16.9614 3.06634C16.2975 2.38464 15.3973 2.00115 14.4583 2ZM4.54167 3.45455H14.4583C14.8825 3.4554 15.2967 3.58656 15.6476 3.83113C15.9985 4.0757 16.2701 4.42251 16.4275 4.82691L11.0031 10.3971C10.6039 10.8053 10.0634 11.0345 9.5 11.0345C8.93658 11.0345 8.39611 10.8053 7.99692 10.3971L2.5725 4.82691C2.72986 4.42251 3.00148 4.0757 3.35241 3.83113C3.70334 3.58656 4.11753 3.4554 4.54167 3.45455ZM14.4583 16.5455H4.54167C3.97808 16.5455 3.43758 16.3156 3.03906 15.9064C2.64055 15.4972 2.41667 14.9423 2.41667 14.3636V6.72727L6.99533 11.4255C7.66019 12.1064 8.56093 12.4888 9.5 12.4888C10.4391 12.4888 11.3398 12.1064 12.0047 11.4255L16.5833 6.72727V14.3636C16.5833 14.9423 16.3595 15.4972 15.9609 15.9064C15.5624 16.3156 15.0219 16.5455 14.4583 16.5455Z" fill="#1E1E2F"/>
</svg>
