<svg width="40" height="40" viewBox="0 0 40 40" fill="none" xmlns="http://www.w3.org/2000/svg">
<path d="M21.3969 8.08685C21.3969 7.79906 21.5112 7.52305 21.7147 7.31956C21.9182 7.11606 22.1942 7.00173 22.482 7.00173C25.3589 7.00489 28.1171 8.14915 30.1513 10.1835C32.1856 12.2178 33.3298 14.976 33.333 17.8529C33.333 18.1407 33.2187 18.4167 33.0152 18.6202C32.8117 18.8237 32.5357 18.938 32.2479 18.938C31.9601 18.938 31.6841 18.8237 31.4806 18.6202C31.2771 18.4167 31.1628 18.1407 31.1628 17.8529C31.1602 15.5514 30.2448 13.3448 28.6174 11.7174C26.99 10.09 24.7835 9.17455 22.482 9.17196C22.1942 9.17196 21.9182 9.05764 21.7147 8.85414C21.5112 8.65064 21.3969 8.37464 21.3969 8.08685ZM22.482 13.5124C23.6332 13.5124 24.7372 13.9697 25.5511 14.7837C26.3651 15.5977 26.8224 16.7017 26.8224 17.8529C26.8224 18.1407 26.9367 18.4167 27.1402 18.6202C27.3437 18.8237 27.6197 18.938 27.9075 18.938C28.1953 18.938 28.4713 18.8237 28.6748 18.6202C28.8783 18.4167 28.9926 18.1407 28.9926 17.8529C28.9909 16.1267 28.3044 14.4717 27.0838 13.251C25.8632 12.0304 24.2082 11.3439 22.482 11.3422C22.1942 11.3422 21.9182 11.4565 21.7147 11.66C21.5112 11.8635 21.3969 12.1395 21.3969 12.4273C21.3969 12.7151 21.5112 12.9911 21.7147 13.1946C21.9182 13.3981 22.1942 13.5124 22.482 13.5124ZM32.3488 25.1655C32.9776 25.7961 33.3308 26.6503 33.3308 27.5408C33.3308 28.4313 32.9776 29.2855 32.3488 29.9161L31.3614 31.0544C22.4744 39.5628 0.848366 17.9419 9.22534 9.02656L10.4732 7.94144C11.1045 7.33017 11.951 6.99202 12.8297 7.00014C13.7084 7.00827 14.5486 7.36201 15.1684 7.98485C15.2021 8.01849 17.2128 10.6304 17.2128 10.6304C17.8094 11.2572 18.1415 12.0898 18.1401 12.9551C18.1387 13.8205 17.8038 14.652 17.2052 15.2768L15.9486 16.8568C16.644 18.5464 17.6664 20.082 18.9571 21.3753C20.2477 22.6686 21.7812 23.6941 23.4694 24.3929L25.0591 23.1287C25.684 22.5305 26.5154 22.1961 27.3805 22.1948C28.2456 22.1936 29.0778 22.5258 29.7044 23.1222C29.7044 23.1222 32.3152 25.1318 32.3488 25.1655ZM30.8557 26.7432C30.8557 26.7432 28.2591 24.7455 28.2254 24.7119C28.0019 24.4903 27.6998 24.3659 27.385 24.3659C27.0702 24.3659 26.7682 24.4903 26.5446 24.7119C26.5153 24.7423 24.3267 26.4861 24.3267 26.4861C24.1792 26.6035 24.0037 26.6804 23.8174 26.7093C23.6311 26.7383 23.4405 26.7182 23.2644 26.651C21.0773 25.8367 19.0908 24.5619 17.4394 22.9129C15.788 21.2639 14.5102 19.2792 13.6927 17.0933C13.6202 16.9148 13.5966 16.7201 13.6242 16.5294C13.6519 16.3387 13.7298 16.1588 13.85 16.0082C13.85 16.0082 15.5938 13.8184 15.6231 13.7902C15.8447 13.5667 15.9691 13.2646 15.9691 12.9498C15.9691 12.635 15.8447 12.3329 15.6231 12.1094C15.5895 12.0768 13.5918 9.47797 13.5918 9.47797C13.3649 9.27452 13.0688 9.16556 12.7641 9.17343C12.4595 9.18129 12.1694 9.30539 11.9533 9.52029L10.7054 10.6054C4.58328 17.9668 23.324 35.6683 29.775 29.5721L30.7635 28.4328C30.9951 28.2182 31.1343 27.922 31.1515 27.6067C31.1687 27.2914 31.0626 26.9818 30.8557 26.7432Z" fill="white"/>
</svg>
