<svg width="48" height="48" viewBox="0 0 48 48" fill="none" xmlns="http://www.w3.org/2000/svg">
<rect width="48" height="48" rx="6" fill="#F97316"/>
<path d="M13.75 25.325C13.4667 25.325 13.2293 25.2293 13.038 25.038C12.8467 24.8467 12.7507 24.609 12.75 24.325C12.7493 24.041 12.8453 23.8037 13.038 23.613C13.2307 23.4223 13.468 23.3263 13.75 23.325H17.25C17.5333 23.325 17.771 23.421 17.963 23.613C18.155 23.805 18.2507 24.0423 18.25 24.325C18.2493 24.6077 18.1533 24.8453 17.962 25.038C17.7707 25.2307 17.5333 25.3263 17.25 25.325H13.75ZM19 32C18.1667 32 17.4583 31.7083 16.875 31.125C16.2917 30.5417 16 29.8333 16 29H14.75C14.4167 29 14.15 28.875 13.95 28.625C13.75 28.375 13.6917 28.0917 13.775 27.775L14 26.825H17.125C17.825 26.825 18.4167 26.5833 18.9 26.1C19.3833 25.6167 19.625 25.025 19.625 24.325C19.625 24.1083 19.6 23.9083 19.55 23.725C19.5 23.5417 19.4333 23.3583 19.35 23.175H20.3C21 23.175 21.5917 22.9333 22.075 22.45C22.5583 21.9667 22.8 21.375 22.8 20.675C22.8 19.975 22.5583 19.3833 22.075 18.9C21.5917 18.4167 21 18.175 20.3 18.175H16.5L16.65 17.575C16.75 17.1083 16.9793 16.7293 17.338 16.438C17.6967 16.1467 18.1173 16.0007 18.6 16H28.75C29.0833 16 29.35 16.125 29.55 16.375C29.75 16.625 29.8083 16.9083 29.725 17.225L29.075 20H31C31.3167 20 31.6167 20.071 31.9 20.213C32.1833 20.355 32.4167 20.5507 32.6 20.8L34.475 23.275C34.6583 23.5083 34.775 23.7627 34.825 24.038C34.875 24.3133 34.875 24.5923 34.825 24.875L34.15 28.2C34.1 28.4333 33.9833 28.625 33.8 28.775C33.6167 28.925 33.4083 29 33.175 29H32C32 29.8333 31.7083 30.5417 31.125 31.125C30.5417 31.7083 29.8333 32 29 32C28.1667 32 27.4583 31.7083 26.875 31.125C26.2917 30.5417 26 29.8333 26 29H22C22 29.8333 21.7083 30.5417 21.125 31.125C20.5417 31.7083 19.8333 32 19 32ZM15.75 21.675C15.4667 21.675 15.2293 21.579 15.038 21.387C14.8467 21.195 14.7507 20.9577 14.75 20.675C14.7493 20.3923 14.8453 20.155 15.038 19.963C15.2307 19.771 15.468 19.675 15.75 19.675H20.25C20.5333 19.675 20.771 19.771 20.963 19.963C21.155 20.155 21.2507 20.3923 21.25 20.675C21.2493 20.9577 21.1533 21.1953 20.962 21.388C20.7707 21.5807 20.5333 21.6763 20.25 21.675H15.75ZM19 30C19.2833 30 19.521 29.904 19.713 29.712C19.905 29.52 20.0007 29.2827 20 29C19.9993 28.7173 19.9033 28.48 19.712 28.288C19.5207 28.096 19.2833 28 19 28C18.7167 28 18.4793 28.096 18.288 28.288C18.0967 28.48 18.0007 28.7173 18 29C17.9993 29.2827 18.0953 29.5203 18.288 29.713C18.4807 29.9057 18.718 30.0013 19 30ZM29 30C29.2833 30 29.521 29.904 29.713 29.712C29.905 29.52 30.0007 29.2827 30 29C29.9993 28.7173 29.9033 28.48 29.712 28.288C29.5207 28.096 29.2833 28 29 28C28.7167 28 28.4793 28.096 28.288 28.288C28.0967 28.48 28.0007 28.7173 28 29C27.9993 29.2827 28.0953 29.5203 28.288 29.713C28.4807 29.9057 28.718 30.0013 29 30ZM27.925 25H32.75L32.85 24.475L31 22H28.625L27.925 25Z" fill="white"/>
</svg>
