<svg width="48" height="48" viewBox="0 0 48 48" fill="none" xmlns="http://www.w3.org/2000/svg">
<rect width="48" height="48" rx="6" fill="#9333EA"/>
<path d="M24 13.75C21.9727 13.75 19.991 14.3512 18.3054 15.4774C16.6198 16.6037 15.306 18.2046 14.5302 20.0775C13.7544 21.9504 13.5515 24.0114 13.947 25.9997C14.3425 27.988 15.3187 29.8144 16.7522 31.2478C18.1856 32.6813 20.012 33.6576 22.0003 34.053C23.9886 34.4485 26.0496 34.2456 27.9225 33.4698C29.7955 32.694 31.3963 31.3802 32.5226 29.6946C33.6489 28.009 34.25 26.0273 34.25 24C34.2474 21.2823 33.1666 18.6768 31.2449 16.7551C29.3232 14.8334 26.7177 13.7526 24 13.75ZM24.75 29.75V30.54C24.75 30.7389 24.671 30.9297 24.5303 31.0703C24.3897 31.211 24.1989 31.29 24 31.29C23.8011 31.29 23.6103 31.211 23.4697 31.0703C23.329 30.9297 23.25 30.7389 23.25 30.54V29.75C22.5983 29.6526 21.9879 29.3716 21.49 28.94C21.1346 28.6421 20.842 28.2765 20.6291 27.8645C20.4163 27.4524 20.2874 27.0022 20.25 26.54C20.2373 26.3922 20.2688 26.2441 20.3403 26.1142C20.4119 25.9843 20.5203 25.8785 20.6519 25.8102C20.7836 25.7419 20.9325 25.7142 21.0799 25.7306C21.2273 25.7469 21.3665 25.8066 21.48 25.902C21.6331 26.0294 21.73 26.2118 21.75 26.41C21.7691 26.6775 21.8418 26.9383 21.9638 27.1771C22.0858 27.4159 22.2545 27.6277 22.46 27.8C22.8732 28.1532 23.4073 28.3325 23.95 28.3C25.51 28.3 26.25 27.7 26.25 26.48C26.25 25.67 25.54 24.8 24 24.8C20.74 24.8 20.25 22.8 20.25 21.65C20.2767 20.9329 20.5231 20.2412 20.956 19.6688C21.3889 19.0964 21.9872 18.6709 22.67 18.45C22.86 18.3913 23.0533 18.348 23.25 18.32V17.54C23.25 17.3411 23.329 17.1503 23.4697 17.0097C23.6103 16.869 23.8011 16.79 24 16.79C24.1989 16.79 24.3897 16.869 24.5303 17.0097C24.671 17.1503 24.75 17.3411 24.75 17.54V18.35C25.5351 18.4809 26.2549 18.8676 26.7974 19.45C27.34 20.0323 27.6749 20.7776 27.75 21.57C27.7582 21.7613 27.693 21.9485 27.5676 22.0932C27.4423 22.2379 27.2663 22.3293 27.0758 22.3484C26.8853 22.3676 26.6947 22.3132 26.543 22.1964C26.3913 22.0795 26.2901 21.9091 26.26 21.72C26.2044 21.1773 25.9437 20.6763 25.531 20.3194C25.1184 19.9626 24.5851 19.7768 24.04 19.8H23.86C23.6164 19.7981 23.3739 19.8318 23.14 19.9C22.8841 19.9835 22.6477 20.1177 22.445 20.2947C22.2422 20.4717 22.0773 20.6878 21.96 20.93C21.8397 21.1697 21.7716 21.4321 21.76 21.7C21.76 22.52 22.03 23.32 24.01 23.32C26.47 23.32 27.76 24.92 27.76 26.5C27.7733 26.9117 27.7047 27.322 27.5581 27.707C27.4116 28.092 27.19 28.4441 26.9062 28.7427C26.6224 29.0414 26.2822 29.2807 25.9052 29.4467C25.5281 29.6128 25.1219 29.7023 24.71 29.71L24.75 29.75Z" fill="white"/>
</svg>
