<svg width="20" height="20" viewBox="0 0 20 20" fill="none" xmlns="http://www.w3.org/2000/svg">
<path d="M10.7161 1.98152C10.7161 1.78782 10.793 1.60205 10.93 1.46508C11.067 1.32811 11.2527 1.25117 11.4464 1.25117C13.3828 1.25329 15.2393 2.02346 16.6085 3.39268C17.9777 4.7619 18.7479 6.61836 18.75 8.55473C18.75 8.74844 18.6731 8.93421 18.5361 9.07118C18.3991 9.20814 18.2133 9.28509 18.0196 9.28509C17.8259 9.28509 17.6402 9.20814 17.5032 9.07118C17.3662 8.93421 17.2893 8.74844 17.2893 8.55473C17.2875 7.00565 16.6714 5.5205 15.576 4.42513C14.4807 3.32976 12.9955 2.71362 11.4464 2.71188C11.2527 2.71188 11.067 2.63493 10.93 2.49796C10.793 2.36099 10.7161 2.17523 10.7161 1.98152ZM11.4464 5.63331C12.2213 5.63331 12.9643 5.9411 13.5122 6.48897C14.0601 7.03685 14.3679 7.77992 14.3679 8.55473C14.3679 8.74844 14.4448 8.93421 14.5818 9.07118C14.7187 9.20814 14.9045 9.28509 15.0982 9.28509C15.2919 9.28509 15.4777 9.20814 15.6147 9.07118C15.7516 8.93421 15.8286 8.74844 15.8286 8.55473C15.8274 7.39287 15.3654 6.27893 14.5438 5.45737C13.7222 4.63581 12.6083 4.17375 11.4464 4.17259C11.2527 4.17259 11.067 4.24954 10.93 4.38651C10.793 4.52348 10.7161 4.70925 10.7161 4.90295C10.7161 5.09665 10.793 5.28242 10.93 5.41939C11.067 5.55636 11.2527 5.63331 11.4464 5.63331ZM18.0876 13.4766C18.5108 13.901 18.7485 14.476 18.7485 15.0754C18.7485 15.6748 18.5108 16.2497 18.0876 16.6741L17.4229 17.4403C11.4413 23.167 -3.11466 8.61462 2.52368 2.61401L3.36359 1.88366C3.78849 1.47223 4.35829 1.24463 4.94971 1.2501C5.54113 1.25556 6.10662 1.49366 6.52384 1.91287C6.54648 1.93551 7.89983 3.69348 7.89983 3.69348C8.3014 4.11535 8.52495 4.67576 8.524 5.2582C8.52304 5.84064 8.29767 6.40031 7.89472 6.82087L7.04897 7.88427C7.51702 9.02151 8.20517 10.0551 9.07389 10.9255C9.94261 11.796 10.9748 12.4863 12.1111 12.9566L13.181 12.1057C13.6017 11.7031 14.1612 11.478 14.7435 11.4772C15.3258 11.4764 15.8859 11.6999 16.3077 12.1013C16.3077 12.1013 18.0649 13.454 18.0876 13.4766ZM17.0826 14.5385C17.0826 14.5385 15.3349 13.194 15.3122 13.1713C15.1618 13.0221 14.9584 12.9384 14.7466 12.9384C14.5347 12.9384 14.3314 13.0221 14.1809 13.1713C14.1612 13.1918 12.688 14.3655 12.688 14.3655C12.5888 14.4445 12.4706 14.4963 12.3453 14.5157C12.2199 14.5352 12.0916 14.5217 11.973 14.4765C10.501 13.9284 9.16389 13.0703 8.05236 11.9604C6.94083 10.8506 6.08081 9.51474 5.53056 8.04349C5.48177 7.92331 5.46586 7.79231 5.48448 7.66395C5.50309 7.53559 5.55555 7.4145 5.63646 7.31313C5.63646 7.31313 6.81014 5.83927 6.82986 5.82028C6.97905 5.66981 7.06276 5.46651 7.06276 5.25462C7.06276 5.04273 6.97905 4.83942 6.82986 4.68896C6.80722 4.66704 5.46264 2.91784 5.46264 2.91784C5.30992 2.7809 5.11061 2.70757 4.90556 2.71286C4.7005 2.71816 4.50524 2.80169 4.3598 2.94632L3.51989 3.67668C-0.600778 8.63142 12.0132 20.5457 16.3552 16.4426L17.0205 15.6757C17.1764 15.5313 17.2701 15.3319 17.2817 15.1197C17.2933 14.9075 17.2219 14.6991 17.0826 14.5385Z" fill="white"/>
</svg>
