<svg width="20" height="20" viewBox="0 0 20 20" fill="none" xmlns="http://www.w3.org/2000/svg">
<path d="M5.83333 4.99869H19.1667C19.3877 4.99869 19.5996 4.9109 19.7559 4.75462C19.9122 4.59834 20 4.38638 20 4.16536C20 3.94435 19.9122 3.73239 19.7559 3.57611C19.5996 3.41983 19.3877 3.33203 19.1667 3.33203H5.83333C5.61232 3.33203 5.40036 3.41983 5.24408 3.57611C5.0878 3.73239 5 3.94435 5 4.16536C5 4.38638 5.0878 4.59834 5.24408 4.75462C5.40036 4.9109 5.61232 4.99869 5.83333 4.99869Z" fill="#374957"/>
<path d="M19.1667 9.16797H5.83333C5.61232 9.16797 5.40036 9.25577 5.24408 9.41205C5.0878 9.56833 5 9.78029 5 10.0013C5 10.2223 5.0878 10.4343 5.24408 10.5906C5.40036 10.7468 5.61232 10.8346 5.83333 10.8346H19.1667C19.3877 10.8346 19.5996 10.7468 19.7559 10.5906C19.9122 10.4343 20 10.2223 20 10.0013C20 9.78029 19.9122 9.56833 19.7559 9.41205C19.5996 9.25577 19.3877 9.16797 19.1667 9.16797Z" fill="#374957"/>
<path d="M19.1667 15H5.83333C5.61232 15 5.40036 15.0878 5.24408 15.2441C5.0878 15.4004 5 15.6123 5 15.8333C5 16.0544 5.0878 16.2663 5.24408 16.4226C5.40036 16.5789 5.61232 16.6667 5.83333 16.6667H19.1667C19.3877 16.6667 19.5996 16.5789 19.7559 16.4226C19.9122 16.2663 20 16.0544 20 15.8333C20 15.6123 19.9122 15.4004 19.7559 15.2441C19.5996 15.0878 19.3877 15 19.1667 15Z" fill="#374957"/>
<path d="M1.66667 5.83333C2.58714 5.83333 3.33333 5.08714 3.33333 4.16666C3.33333 3.24619 2.58714 2.5 1.66667 2.5C0.746192 2.5 0 3.24619 0 4.16666C0 5.08714 0.746192 5.83333 1.66667 5.83333Z" fill="#374957"/>
<path d="M1.66667 11.6654C2.58714 11.6654 3.33333 10.9192 3.33333 9.99869C3.33333 9.07822 2.58714 8.33203 1.66667 8.33203C0.746192 8.33203 0 9.07822 0 9.99869C0 10.9192 0.746192 11.6654 1.66667 11.6654Z" fill="#374957"/>
<path d="M1.66667 17.5013C2.58714 17.5013 3.33333 16.7551 3.33333 15.8346C3.33333 14.9142 2.58714 14.168 1.66667 14.168C0.746192 14.168 0 14.9142 0 15.8346C0 16.7551 0.746192 17.5013 1.66667 17.5013Z" fill="#374957"/>
</svg>
