<svg width="20" height="20" viewBox="0 0 20 20" fill="none" xmlns="http://www.w3.org/2000/svg">
<g clip-path="url(#clip0_2628_2948)">
<path d="M5.83333 0H3.33333C2.44928 0 1.60143 0.35119 0.976311 0.976311C0.35119 1.60143 0 2.44928 0 3.33333L0 5.83333C0 6.71739 0.35119 7.56524 0.976311 8.19036C1.60143 8.81548 2.44928 9.16667 3.33333 9.16667H5.83333C6.71739 9.16667 7.56524 8.81548 8.19036 8.19036C8.81548 7.56524 9.16667 6.71739 9.16667 5.83333V3.33333C9.16667 2.44928 8.81548 1.60143 8.19036 0.976311C7.56524 0.35119 6.71739 0 5.83333 0V0ZM7.5 5.83333C7.5 6.27536 7.32441 6.69928 7.01184 7.01184C6.69928 7.32441 6.27536 7.5 5.83333 7.5H3.33333C2.89131 7.5 2.46738 7.32441 2.15482 7.01184C1.84226 6.69928 1.66667 6.27536 1.66667 5.83333V3.33333C1.66667 2.89131 1.84226 2.46738 2.15482 2.15482C2.46738 1.84226 2.89131 1.66667 3.33333 1.66667H5.83333C6.27536 1.66667 6.69928 1.84226 7.01184 2.15482C7.32441 2.46738 7.5 2.89131 7.5 3.33333V5.83333Z" fill="#374957"/>
<path d="M16.6673 0H14.1673C13.2833 0 12.4354 0.35119 11.8103 0.976311C11.1852 1.60143 10.834 2.44928 10.834 3.33334V5.83334C10.834 6.71739 11.1852 7.56524 11.8103 8.19036C12.4354 8.81548 13.2833 9.16667 14.1673 9.16667H16.6673C17.5514 9.16667 18.3992 8.81548 19.0243 8.19036C19.6494 7.56524 20.0006 6.71739 20.0006 5.83334V3.33334C20.0006 2.44928 19.6494 1.60143 19.0243 0.976311C18.3992 0.35119 17.5514 0 16.6673 0V0ZM18.334 5.83334C18.334 6.27537 18.1584 6.69929 17.8458 7.01185C17.5333 7.32441 17.1093 7.50001 16.6673 7.50001H14.1673C13.7253 7.50001 13.3014 7.32441 12.9888 7.01185C12.6762 6.69929 12.5006 6.27537 12.5006 5.83334V3.33334C12.5006 2.89131 12.6762 2.46738 12.9888 2.15482C13.3014 1.84226 13.7253 1.66667 14.1673 1.66667H16.6673C17.1093 1.66667 17.5333 1.84226 17.8458 2.15482C18.1584 2.46738 18.334 2.89131 18.334 3.33334V5.83334Z" fill="#374957"/>
<path d="M5.83333 10.832H3.33333C2.44928 10.832 1.60143 11.1832 0.976311 11.8083C0.35119 12.4335 0 13.2813 0 14.1654L0 16.6654C0 17.5494 0.35119 18.3973 0.976311 19.0224C1.60143 19.6475 2.44928 19.9987 3.33333 19.9987H5.83333C6.71739 19.9987 7.56524 19.6475 8.19036 19.0224C8.81548 18.3973 9.16667 17.5494 9.16667 16.6654V14.1654C9.16667 13.2813 8.81548 12.4335 8.19036 11.8083C7.56524 11.1832 6.71739 10.832 5.83333 10.832ZM7.5 16.6654C7.5 17.1074 7.32441 17.5313 7.01184 17.8439C6.69928 18.1564 6.27536 18.332 5.83333 18.332H3.33333C2.89131 18.332 2.46738 18.1564 2.15482 17.8439C1.84226 17.5313 1.66667 17.1074 1.66667 16.6654V14.1654C1.66667 13.7233 1.84226 13.2994 2.15482 12.9869C2.46738 12.6743 2.89131 12.4987 3.33333 12.4987H5.83333C6.27536 12.4987 6.69928 12.6743 7.01184 12.9869C7.32441 13.2994 7.5 13.7233 7.5 14.1654V16.6654Z" fill="#374957"/>
<path d="M16.6673 10.832H14.1673C13.2833 10.832 12.4354 11.1832 11.8103 11.8083C11.1852 12.4335 10.834 13.2813 10.834 14.1654V16.6654C10.834 17.5494 11.1852 18.3973 11.8103 19.0224C12.4354 19.6475 13.2833 19.9987 14.1673 19.9987H16.6673C17.5514 19.9987 18.3992 19.6475 19.0243 19.0224C19.6494 18.3973 20.0006 17.5494 20.0006 16.6654V14.1654C20.0006 13.2813 19.6494 12.4335 19.0243 11.8083C18.3992 11.1832 17.5514 10.832 16.6673 10.832ZM18.334 16.6654C18.334 17.1074 18.1584 17.5313 17.8458 17.8439C17.5333 18.1564 17.1093 18.332 16.6673 18.332H14.1673C13.7253 18.332 13.3014 18.1564 12.9888 17.8439C12.6762 17.5313 12.5006 17.1074 12.5006 16.6654V14.1654C12.5006 13.7233 12.6762 13.2994 12.9888 12.9869C13.3014 12.6743 13.7253 12.4987 14.1673 12.4987H16.6673C17.1093 12.4987 17.5333 12.6743 17.8458 12.9869C18.1584 13.2994 18.334 13.7233 18.334 14.1654V16.6654Z" fill="#374957"/>
</g>
<defs>
<clipPath id="clip0_2628_2948">
<rect width="20" height="20" fill="white"/>
</clipPath>
</defs>
</svg>
