<svg width="40" height="40" viewBox="0 0 40 40" fill="none" xmlns="http://www.w3.org/2000/svg">
<mask id="path-1-inside-1_2668_1809" fill="white">
<path d="M0 20C0 8.95431 8.95431 0 20 0C31.0457 0 40 8.95431 40 20C40 31.0457 31.0457 40 20 40C8.95431 40 0 31.0457 0 20Z"/>
</mask>
<path d="M0 20C0 8.95431 8.95431 0 20 0C31.0457 0 40 8.95431 40 20C40 31.0457 31.0457 40 20 40C8.95431 40 0 31.0457 0 20Z" fill="white"/>
<path d="M0 0H40H0ZM40 21C40 32.0457 31.0457 41 20 41C8.9543 41 0 32.0457 0 21V20C0 30.4934 8.9543 39 20 39C31.0457 39 40 30.4934 40 20V21ZM0 40V0V40ZM40 0V40V0Z" fill="#0075BF" mask="url(#path-1-inside-1_2668_1809)"/>
<path d="M29.7493 15.1263L25.416 17.293M25.416 17.293L24.8743 17.5638L19.9993 20.0013M25.416 17.293V21.0846M25.416 17.293L15.1243 11.8763M19.9993 20.0013L10.2493 15.1263M19.9993 20.0013V30.293M23.8755 10.6651L26.0422 11.8026C28.3724 13.0257 29.5381 13.6367 30.1859 14.7363C30.8327 15.8348 30.8327 17.2031 30.8327 19.9385V20.0652C30.8327 22.7996 30.8327 24.1678 30.1859 25.2663C29.5381 26.3659 28.3724 26.978 26.0422 28.2011L23.8755 29.3375C21.9732 30.3352 21.022 30.8346 19.9993 30.8346C18.9767 30.8346 18.0255 30.3363 16.1232 29.3375L13.9565 28.2C11.6263 26.9769 10.4606 26.3659 9.81277 25.2663C9.16602 24.1678 9.16602 22.7996 9.16602 20.0663V19.9396C9.16602 17.2041 9.16602 15.8359 9.81277 14.7374C10.4606 13.6378 11.6263 13.0257 13.9565 11.8037L16.1232 10.6662C18.0255 9.66739 18.9767 9.16797 19.9993 9.16797C21.022 9.16797 21.9732 9.6663 23.8755 10.6651Z" stroke="#0075BF" stroke-width="1.5" stroke-linecap="round"/>
</svg>
