<svg width="20" height="20" viewBox="0 0 20 20" fill="none" xmlns="http://www.w3.org/2000/svg">
<g opacity="0.6" clip-path="url(#clip0_2379_598)">
<path d="M19.7552 18.5768L14.781 13.6027C16.1365 11.9448 16.803 9.82941 16.6425 7.69396C16.4821 5.55852 15.507 3.56644 13.919 2.12976C12.331 0.693089 10.2515 -0.0782598 8.1107 -0.0247333C5.96991 0.0287933 3.93158 0.903099 2.41734 2.41734C0.903099 3.93158 0.0287933 5.96991 -0.0247333 8.1107C-0.0782598 10.2515 0.693089 12.331 2.12976 13.919C3.56644 15.507 5.55852 16.4821 7.69396 16.6425C9.82941 16.803 11.9448 16.1365 13.6027 14.781L18.5768 19.7552C18.734 19.907 18.9445 19.991 19.163 19.9891C19.3815 19.9872 19.5905 19.8995 19.745 19.745C19.8995 19.5905 19.9872 19.3815 19.9891 19.163C19.991 18.9445 19.907 18.734 19.7552 18.5768ZM8.33266 14.9993C7.01412 14.9993 5.72519 14.6083 4.62886 13.8758C3.53253 13.1433 2.67805 12.1021 2.17347 10.8839C1.66888 9.66571 1.53686 8.32527 1.79409 7.03206C2.05133 5.73885 2.68627 4.55097 3.61862 3.61862C4.55097 2.68627 5.73885 2.05133 7.03206 1.79409C8.32527 1.53686 9.66571 1.66888 10.8839 2.17347C12.1021 2.67805 13.1433 3.53253 13.8758 4.62886C14.6083 5.72519 14.9993 7.01412 14.9993 8.33266C14.9973 10.1002 14.2943 11.7947 13.0445 13.0445C11.7947 14.2943 10.1002 14.9973 8.33266 14.9993Z" fill="#4D5461"/>
</g>
<defs>
<clipPath id="clip0_2379_598">
<rect width="20" height="20" fill="white"/>
</clipPath>
</defs>
</svg>
