<svg width="48" height="48" viewBox="0 0 48 48" fill="none" xmlns="http://www.w3.org/2000/svg">
<rect width="48" height="48" rx="6" fill="#0066CC"/>
<g clip-path="url(#clip0_525_7681)">
<path fill-rule="evenodd" clip-rule="evenodd" d="M22.716 13.0485C23.1345 12.8785 23.57 12.75 23.936 12.75C24.2995 12.75 24.7405 12.8775 25.1675 13.046C25.6185 13.2235 26.1345 13.4805 26.6745 13.806C27.752 14.455 28.9645 15.4035 29.9555 16.6055C30.2708 16.9895 30.462 17.4603 30.5035 17.9555C30.7085 20.244 30.754 24.398 30.75 27.9485C30.7476 29.488 30.7371 31.0276 30.7185 32.567L30.716 32.75H31.966L31.9685 32.5815C31.9825 31.383 31.9975 29.7375 32 27.95C32.003 25.3005 31.979 22.2735 31.878 19.931C32.4816 20.0096 33.0382 20.2982 33.4502 20.7462C33.8621 21.1942 34.1032 21.773 34.131 22.381C34.1895 23.5645 34.25 25.371 34.25 27.7995V32.75H34.5C34.8315 32.75 35.1495 32.8817 35.3839 33.1161C35.6183 33.3505 35.75 33.6685 35.75 34C35.75 34.3315 35.6183 34.6495 35.3839 34.8839C35.1495 35.1183 34.8315 35.25 34.5 35.25H13.5C13.1685 35.25 12.8505 35.1183 12.6161 34.8839C12.3817 34.6495 12.25 34.3315 12.25 34C12.25 33.6685 12.3817 33.3505 12.6161 33.1161C12.8505 32.8817 13.1685 32.75 13.5 32.75H13.75V27.7995C13.75 25.371 13.81 23.5645 13.869 22.3805C13.8969 21.7726 14.138 21.1939 14.55 20.746C14.962 20.2981 15.5185 20.0095 16.122 19.931C16.021 22.2735 15.997 25.301 16 27.95C16.002 29.7375 16.017 31.383 16.031 32.5815L16.033 32.75H17.283L17.281 32.567C17.2626 31.0276 17.2523 29.488 17.25 27.9485C17.245 24.3985 17.291 20.2435 17.496 17.955C17.5381 17.461 17.7282 16.9913 18.0415 16.607C19.0225 15.409 20.1995 14.4615 21.247 13.811C21.772 13.485 22.274 13.2275 22.715 13.0485M26.25 30.4995V32.75H21.75V30.4995C21.75 29.2565 22.7575 28.25 24 28.25C25.2425 28.25 26.25 29.2565 26.25 30.4995ZM24 16.25C23.7702 16.25 23.5426 16.2953 23.3303 16.3832C23.118 16.4712 22.9251 16.6001 22.7626 16.7626C22.6001 16.9251 22.4712 17.118 22.3832 17.3303C22.2953 17.5426 22.25 17.7702 22.25 18C22.25 18.2298 22.2953 18.4574 22.3832 18.6697C22.4712 18.882 22.6001 19.0749 22.7626 19.2374C22.9251 19.3999 23.118 19.5288 23.3303 19.6168C23.5426 19.7047 23.7702 19.75 24 19.75C24.4641 19.75 24.9092 19.5656 25.2374 19.2374C25.5656 18.9092 25.75 18.4641 25.75 18C25.75 17.5359 25.5656 17.0908 25.2374 16.7626C24.9092 16.4344 24.4641 16.25 24 16.25ZM22 20.75C22.1989 20.75 22.3897 20.829 22.5303 20.9697C22.671 21.1103 22.75 21.3011 22.75 21.5V22.5C22.75 22.6989 22.671 22.8897 22.5303 23.0303C22.3897 23.171 22.1989 23.25 22 23.25C21.8011 23.25 21.6103 23.171 21.4697 23.0303C21.329 22.8897 21.25 22.6989 21.25 22.5V21.5C21.25 21.3011 21.329 21.1103 21.4697 20.9697C21.6103 20.829 21.8011 20.75 22 20.75ZM22.75 25C22.75 24.8011 22.671 24.6103 22.5303 24.4697C22.3897 24.329 22.1989 24.25 22 24.25C21.8011 24.25 21.6103 24.329 21.4697 24.4697C21.329 24.6103 21.25 24.8011 21.25 25V26C21.25 26.1989 21.329 26.3897 21.4697 26.5303C21.6103 26.671 21.8011 26.75 22 26.75C22.1989 26.75 22.3897 26.671 22.5303 26.5303C22.671 26.3897 22.75 26.1989 22.75 26V25ZM26 20.75C26.1989 20.75 26.3897 20.829 26.5303 20.9697C26.671 21.1103 26.75 21.3011 26.75 21.5V22.5C26.75 22.6989 26.671 22.8897 26.5303 23.0303C26.3897 23.171 26.1989 23.25 26 23.25C25.8011 23.25 25.6103 23.171 25.4697 23.0303C25.329 22.8897 25.25 22.6989 25.25 22.5V21.5C25.25 21.3011 25.329 21.1103 25.4697 20.9697C25.6103 20.829 25.8011 20.75 26 20.75ZM26.75 25C26.75 24.8011 26.671 24.6103 26.5303 24.4697C26.3897 24.329 26.1989 24.25 26 24.25C25.8011 24.25 25.6103 24.329 25.4697 24.4697C25.329 24.6103 25.25 24.8011 25.25 25V26C25.25 26.1989 25.329 26.3897 25.4697 26.5303C25.6103 26.671 25.8011 26.75 26 26.75C26.1989 26.75 26.3897 26.671 26.5303 26.5303C26.671 26.3897 26.75 26.1989 26.75 26V25Z" fill="white"/>
</g>
<defs>
<clipPath id="clip0_525_7681">
<rect width="24" height="24" fill="white" transform="translate(12 12)"/>
</clipPath>
</defs>
</svg>
