<svg width="48" height="48" viewBox="0 0 48 48" fill="none" xmlns="http://www.w3.org/2000/svg">
<rect width="48" height="48" rx="6" fill="#10B981"/>
<path d="M15.7197 14.7867L16.2697 16.6497H30.9237C32.7637 16.6497 34.1687 18.3667 33.6387 20.1597L31.9837 25.7597C31.6317 26.9527 30.5127 27.7497 29.2687 27.7497H20.1127C18.8687 27.7497 17.7507 26.9527 17.3977 25.7597L14.2807 15.2117C14.2498 15.1165 14.2383 15.016 14.2469 14.9162C14.2555 14.8165 14.2839 14.7194 14.3306 14.6308C14.3773 14.5422 14.4413 14.4639 14.5187 14.4004C14.5962 14.3369 14.6855 14.2896 14.7816 14.2612C14.8776 14.2328 14.9783 14.224 15.0779 14.2352C15.1774 14.2463 15.2736 14.2773 15.361 14.3263C15.4483 14.3753 15.525 14.4413 15.5864 14.5203C15.6478 14.5994 15.6938 14.69 15.7197 14.7867ZM27.0907 20.9397C27.2037 20.7783 27.2487 20.5789 27.216 20.3846C27.1832 20.1903 27.0752 20.0167 26.9155 19.9014C26.7557 19.786 26.5569 19.7382 26.3622 19.7682C26.1674 19.7982 25.9923 19.9036 25.8747 20.0617L24.1617 22.4327L23.5627 21.7487C23.4987 21.6718 23.4199 21.6084 23.331 21.5623C23.2421 21.5163 23.1449 21.4885 23.0451 21.4806C22.9453 21.4727 22.845 21.4849 22.75 21.5164C22.6549 21.5479 22.5672 21.5982 22.4919 21.6641C22.4166 21.7301 22.3552 21.8104 22.3115 21.9005C22.2677 21.9905 22.2424 22.0884 22.2371 22.1884C22.2318 22.2883 22.2465 22.3883 22.2804 22.4825C22.3144 22.5767 22.3668 22.6631 22.4347 22.7367L23.4687 23.9177C23.5651 24.0279 23.6851 24.115 23.8197 24.1724C23.9544 24.2298 24.1003 24.2562 24.2466 24.2494C24.3928 24.2427 24.5357 24.2031 24.6645 24.1336C24.7933 24.064 24.9048 23.9663 24.9907 23.8477L27.0907 20.9397ZM20.4997 29.2497C19.9029 29.2497 19.3307 29.4868 18.9087 29.9087C18.4867 30.3307 18.2497 30.903 18.2497 31.4997C18.2497 32.0965 18.4867 32.6688 18.9087 33.0907C19.3307 33.5127 19.9029 33.7497 20.4997 33.7497C21.0964 33.7497 21.6687 33.5127 22.0907 33.0907C22.5126 32.6688 22.7497 32.0965 22.7497 31.4997C22.7497 30.903 22.5126 30.3307 22.0907 29.9087C21.6687 29.4868 21.0964 29.2497 20.4997 29.2497ZM28.4997 29.2497C27.9029 29.2497 27.3307 29.4868 26.9087 29.9087C26.4867 30.3307 26.2497 30.903 26.2497 31.4997C26.2497 32.0965 26.4867 32.6688 26.9087 33.0907C27.3307 33.5127 27.9029 33.7497 28.4997 33.7497C29.0964 33.7497 29.6687 33.5127 30.0907 33.0907C30.5126 32.6688 30.7497 32.0965 30.7497 31.4997C30.7497 30.903 30.5126 30.3307 30.0907 29.9087C29.6687 29.4868 29.0964 29.2497 28.4997 29.2497Z" fill="white"/>
</svg>
