<svg width="19" height="18" viewBox="0 0 19 18" fill="none" xmlns="http://www.w3.org/2000/svg">
<path d="M8.38586 0.692677C8.68521 -0.228634 9.98862 -0.228635 10.288 0.692676L11.8066 5.36644C11.9404 5.77846 12.3244 6.05742 12.7576 6.05742H17.6719C18.6406 6.05742 19.0434 7.29704 18.2597 7.86644L14.284 10.755C13.9335 11.0096 13.7868 11.461 13.9207 11.873L15.4393 16.5468C15.7386 17.4681 14.6842 18.2342 13.9004 17.6648L9.9247 14.7763C9.57421 14.5216 9.09962 14.5216 8.74913 14.7763L4.77339 17.6648C3.98968 18.2342 2.9352 17.4681 3.23455 16.5468L4.75314 11.873C4.88702 11.461 4.74036 11.0096 4.38987 10.755L0.414135 7.86644C-0.369579 7.29704 0.0331967 6.05742 1.00192 6.05742H5.9162C6.34943 6.05742 6.73339 5.77846 6.86726 5.36644L8.38586 0.692677Z" fill="#FF7F22"/>
</svg>
